# xmcd
#
# Track frame offsets:
#  150
#  13444
#  28729
#  43215
#  55308
#  73135
#  89997
#  105618
#  117941
#  136562
#  154557
#  170196
#
# Disc length: 2534 seconds
#
# Revision: 0
# Processed by: cddbd v1.5.1PL2 Copyright (c) Steve Scherf et al.
# Submitted via: Collectorz.com_Music_Collector 6.9
#
DISCID=af09e40c
DTITLE=D' Parker Reed - Variety - Verité
DYEAR=2004
DGENRE=Country
TTITLE0=Oochikawawa
TTITLE1=Because She's The Mama
TTITLE2=She Does The Same For Me
TTITLE3=Hubby Of A Hooker
TTITLE4=Old Age Ain't For Sissies
TTITLE5=Heaven Won't Be Heaven 'til You're There
TTITLE6=G'rage Sale Here Today
TTITLE7=I Like Your Top
TTITLE8=Love You Hate You Blues
TTITLE9=Goodbye My Little Girl
TTITLE10=No French Kissin'
TTITLE11=I Sure Did Love You
EXTD=
EXTT0=
EXTT1=
EXTT2=
EXTT3=
EXTT4=
EXTT5=
EXTT6=
EXTT7=
EXTT8=
EXTT9=
EXTT10=
EXTT11=
PLAYORDER=
